<svg id="Layer_1" data-name="Layer 1" xmlns="http://www.w3.org/2000/svg" viewBox="0 0 400 300" width="406" height="306" class="illustration styles_illustrationTablet__1DWOa"><title>#32 podcast</title><path d="M299,132.09s-14.2,1.26-14.2,13.34c0,8.6,1.26,29.25-2.27,42.78a11.75,11.75,0,0,1-16,7.85l-33.26-14.12s-10.29-4.69-14-2,5.06,5.53,5.06,5.53-3,10.62,5.7,9.63,38.33,33.27,62.23,18S317.06,149.85,299,132.09Z" fill="#f4a28c"></path><path d="M299,132.09s-14.2,1.26-14.2,13.34c0,8.6,1.26,29.25-2.27,42.78a11.75,11.75,0,0,1-16,7.85l-33.26-14.12s-10.29-4.69-14-2,5.06,5.53,5.06,5.53-3,10.62,5.7,9.63,38.33,33.27,62.23,18S317.06,149.85,299,132.09Z" opacity="0.08"></path><path d="M115.89,126.08s21.41,7.68,26.36,37.38-.05,43,29.95,42.32l21.67-1.33V214l-67.34.11Z" fill="#fc6868"></path><path d="M115.89,126.08s21.41,7.68,26.36,37.38-.05,43,29.95,42.32l21.67-1.33V214l-67.34.11Z" opacity="0.08"></path><path d="M100.29,88.13S103.49,94.9,104,100a3.76,3.76,0,0,1-3.37,4.13c-2.56.24-6.1-.19-8.25-3.61L88,95.16a6.72,6.72,0,0,1,.29-7.77C91.23,83.08,98.55,83.91,100.29,88.13Z" fill="#f4a28c"></path><polygon points="89.68 96.39 87.93 120.85 101.48 120.86 97.42 103.5 89.68 96.39" fill="#f4a28c"></polygon><path d="M98.66,89.07A30.2,30.2,0,0,1,92,91a6.24,6.24,0,0,1,2.38,6.43,5.1,5.1,0,0,1-5.06,4L86.1,92.36a7.63,7.63,0,0,1,1.27-7.72,29.8,29.8,0,0,1,2.46-2.59c2.22-2,6.66-1.67,8.34-4.29a1.8,1.8,0,0,1,3.09.12c1.43,2.59,2.53,7.09-.62,10A7.14,7.14,0,0,1,98.66,89.07Z" fill="#24285b"></path><path d="M95.05,96.9s-1-2.68-3-1.72-.46,4.84,2.43,4.18Z" fill="#f4a28c"></path><path d="M102.08,92.5l3,2a1.2,1.2,0,0,1-.05,2l-2.5,1.5Z" fill="#f4a28c"></path><path d="M97.54,104a9.11,9.11,0,0,1-4.42-2.11s-.88,5.3,5.58,7.08Z" fill="#ce8172" opacity="0.31"></path><path d="M305.89,89.84s-2.93,6.21-3.43,10.88a3.45,3.45,0,0,0,3.09,3.79c2.36.22,5.6-.17,7.58-3.31l4-4.91a6.15,6.15,0,0,0-.26-7.12C314.21,85.21,307.49,86,305.89,89.84Z" fill="#f4a28c"></path><polygon points="315.63 97.42 317.24 119.87 304.8 119.87 308.53 103.95 315.63 97.42" fill="#f4a28c"></polygon><path d="M304.25,93.85l-2.71,1.82a1.1,1.1,0,0,0,0,1.86l2.29,1.37Z" fill="#f4a28c"></path><path d="M308.42,104.4a8.42,8.42,0,0,0,4.05-1.94s.81,4.86-5.12,6.5Z" fill="#ce8172" opacity="0.31"></path><rect x="158.58" y="174.34" width="6.72" height="35.86" fill="#ffd200"></rect><rect x="158.7" y="174.34" width="6.72" height="35.86" fill="#fff" opacity="0.46"></rect><polygon points="158.58 204.44 147.77 214.03 176.35 214.03 165.3 204.44 158.58 204.44" fill="#ffd200"></polygon><polygon points="158.46 204.44 147.65 214.03 176.23 214.03 165.19 204.44 158.46 204.44" opacity="0.08"></polygon><path d="M87.74,119.87h12.44s18.92,0,30.59,25.65c8.36,18.37.5,68.51.5,68.51H63.77S28.72,129.05,87.74,119.87Z" fill="#fc6868"></path><rect x="151.69" y="143.53" width="20.74" height="38.45" fill="#ffd200"></rect><rect x="248.41" y="174.34" width="6.72" height="35.86" fill="#ffd200"></rect><rect x="248.53" y="174.34" width="6.72" height="35.86" fill="#fff" opacity="0.46"></rect><polygon points="248.41 204.44 237.6 214.03 266.18 214.03 255.13 204.44 248.41 204.44" fill="#ffd200"></polygon><polygon points="248.29 204.44 237.48 214.03 266.06 214.03 255.01 204.44 248.29 204.44" opacity="0.08"></polygon><rect x="241.52" y="143.53" width="20.74" height="38.45" fill="#ffd200"></rect><path d="M83.24,139.45S97,150.82,88.77,168.13s-16.62,32.07,6.28,29.81l28.72-11.5s5.5-3,5.75,1.75,2.5,12.5-11.5,16.25-13,9.7-13,9.7L63.77,214,52,185.19Z" opacity="0.08"></path><path d="M84.29,142.68c-2.1-11-16.09-14.64-23.75-6.48a75.42,75.42,0,0,0-18.77,35.65c-6.67,30.67,3.66,40.35,16,42.18s61.33-18.84,61.33-18.84L115.89,186s-37.29,14.31-49.62,3.65C56.55,181.29,88,162,84.29,142.68Z" fill="#fc6868"></path><path d="M84.29,142.68c-2.1-11-16.09-14.64-23.75-6.48a75.42,75.42,0,0,0-18.77,35.65c-6.67,30.67,3.66,40.35,16,42.18s61.33-18.84,61.33-18.84L115.89,186s-37.29,14.31-49.62,3.65C56.55,181.29,88,162,84.29,142.68Z" fill="#fff" opacity="0.2"></path><path d="M115.89,186s3.54-4.85,9-4.52,3.5,3.7.84,4.52c0,0,6.16,6.31-6.67,9.15Z" fill="#f4a28c"></path><path d="M304.8,119.87s-24.8,15.07-25.05,28.07a26.45,26.45,0,0,0,4.9,15.87,30.41,30.41,0,0,1,5.21,12.63l.65,37.59,54.36,1.16s35.38-74-14.12-96.5Z" fill="#fc6868"></path><path d="M338.49,134.51S317.24,137.33,322,171.2c2.28,16.21,4.84,24.74-20.95,17L290,181.75l.56,32.28,54.36,1.16,8-23.41Z" opacity="0.08"></path><path d="M304.8,119.87s.47,10.32,7.71,9.07,10.75-3.18,12-10Z" fill="#fff"></path><path d="M303.25,90.47l9.43,4a45.71,45.71,0,0,0,2.9,21.09,11.65,11.65,0,0,0,17.73,4.9h0a5.21,5.21,0,0,0-.49-8.68c-4.71-2.78-9.6-7.75-8.7-16.21C325.79,79.86,307.45,74.22,303.25,90.47Z" fill="#24285b"></path><path d="M332.64,144.58c-.5-11.73,15.65-15.82,20.66-5.2a50.17,50.17,0,0,1,4.38,15.71c2.92,24.91,7.64,52.49-13.07,60.76s-56.68-35.33-56.68-35.33l6.92-6.62s27.29,21.48,38.57,19.76C341.2,192.46,333.53,165.91,332.64,144.58Z" fill="#f4a28c"></path><circle cx="181.03" cy="70.79" r="29.43" fill="#24285b"></circle><path d="M182.83,100.16s-6.37-34.09,23.75-44a29.91,29.91,0,0,1,2.9,7L191.32,98.37A29.27,29.27,0,0,1,182.83,100.16Z" opacity="0.24"></path><circle cx="219.77" cy="90.81" r="29.43" fill="#24285b"></circle><path d="M312,95.84s1-2.47,2.76-1.58.42,4.44-2.24,3.84Z" fill="#f4a28c"></path><path d="M295.42,172.81a20.81,20.81,0,0,0-7.32-9.17c-9.8-6.59-5.5,2.19-3.09,4.35,0,0-9.57,3.64,2.56,12.89Z" fill="#f4a28c"></path><rect x="285.77" y="175.93" width="14.45" height="5.83" transform="translate(-37.44 271.8) rotate(-47.11)" fill="#24285b"></rect><path d="M193.87,207.79s14.33-4.52,12.83,6.24H193.87Z" fill="#f4a28c"></path><polygon points="154.88 84.29 134.62 98.9 162.75 93.85 154.88 84.29" fill="#24285b"></polygon><polygon points="245.64 96.67 265.9 111.28 237.76 106.24 245.64 96.67" fill="#24285b"></polygon><circle cx="206.58" cy="91.05" r="4.51" fill="#ffd200"></circle><circle cx="220.83" cy="91.05" r="4.51" fill="#ffd200"></circle><circle cx="234.58" cy="91.05" r="4.51" fill="#ffd200"></circle><circle cx="167.03" cy="71.42" r="4.51" fill="#fc6868"></circle><circle cx="181.28" cy="71.42" r="4.51" fill="#fc6868"></circle><circle cx="195.03" cy="71.42" r="4.51" fill="#fc6868"></circle><rect x="151.69" y="143.53" width="20.74" height="25.42" opacity="0.08"></rect><rect x="241.52" y="143.53" width="20.74" height="25.42" opacity="0.08"></rect><polygon points="166.66 205.68 193.87 204.45 193.87 214.03 176.35 214.03 166.66 205.68" opacity="0.08"></polygon><path d="M86.53,95.25s-5-8.91,3.3-13.2A11.9,11.9,0,0,0,90.15,95Z" fill="#fc6868"></path><path d="M86.53,95.25s-5-8.91,3.3-13.2A11.9,11.9,0,0,0,90.15,95Z" opacity="0.08"></path><circle cx="90.15" cy="98.9" r="5.36" fill="#fc6868"></circle><path d="M319.2,93.69s5-8.91-3.3-13.2a11.89,11.89,0,0,1-.31,12.91Z" fill="#fc6868"></path><path d="M319.2,93.69s5-8.91-3.3-13.2a11.89,11.89,0,0,1-.31,12.91Z" opacity="0.08"></path><circle cx="315.59" cy="97.34" r="5.36" fill="#fc6868"></circle><circle cx="292.61" cy="178.83" r="3.95" fill="#ffd200"></circle><rect x="34.88" y="214.03" width="330.67" height="12.32" fill="#e6e6e6"></rect><rect x="34.88" y="226.34" width="330.67" height="25.84" fill="#a5a5a5" opacity="0.4"></rect></svg>